<svg xmlns="http://www.w3.org/2000/svg" viewBox="0 0 200 200" width="200" height="200">
  <defs>
    <linearGradient id="bgGrad" x1="0" y1="0" x2="1" y2="1">
      <stop offset="0%" stop-color="#1e3a8a"/>
      <stop offset="100%" stop-color="#4c1d95"/>
    </linearGradient>
    <linearGradient id="badgeGrad" x1="0" y1="0" x2="1" y2="1">
      <stop offset="0%" stop-color="#38bdf8"/>
      <stop offset="100%" stop-color="#a78bfa"/>
    </linearGradient>
    <linearGradient id="hlGrad" x1="0" y1="0" x2="1" y2="0">
      <stop offset="0%" stop-color="#93c5fd"/>
      <stop offset="100%" stop-color="#c4b5fd"/>
    </linearGradient>
    <filter id="shadow" x="-20%" y="-20%" width="140%" height="140%">
      <feDropShadow dx="0" dy="2" stdDeviation="3" flood-color="#000" flood-opacity="0.35"/>
    </filter>
  </defs>
  <rect width="200" height="200" rx="38" fill="url(#bgGrad)"/>
  <rect x="1.5" y="1.5" width="197" height="197" rx="37"
        fill="none" stroke="rgba(255,255,255,0.07)" stroke-width="2"/>
  <path d="M 42 24 H 138 L 168 54 V 172 H 42 Z"
        fill="rgba(255,255,255,0.07)"
        stroke="rgba(255,255,255,0.30)"
        stroke-width="2.2"
        stroke-linejoin="round"/>
  <path d="M 138 24 L 168 54 H 138 Z"
        fill="rgba(255,255,255,0.18)"
        stroke="rgba(255,255,255,0.30)"
        stroke-width="2.2"
        stroke-linejoin="round"/>
  <rect x="57" y="72" width="50" height="9" rx="4.5" fill="url(#hlGrad)"/>
  <rect x="57" y="91"  width="86" height="6" rx="3" fill="rgba(255,255,255,0.50)"/>
  <rect x="57" y="104" width="72" height="6" rx="3" fill="rgba(255,255,255,0.50)"/>
  <rect x="57" y="117" width="80" height="6" rx="3" fill="rgba(255,255,255,0.50)"/>
  <rect x="67" y="131" width="55" height="5" rx="2.5" fill="rgba(167,139,250,0.45)"/>
  <rect x="67" y="141" width="44" height="5" rx="2.5" fill="rgba(167,139,250,0.30)"/>
  <circle cx="148" cy="150" r="31" fill="url(#badgeGrad)" filter="url(#shadow)"/>
  <circle cx="148" cy="150" r="28.5" fill="none"
          stroke="rgba(255,255,255,0.25)" stroke-width="1.5"/>
  <circle cx="148" cy="134" r="5.5" fill="white" opacity="0.95"/>
  <line x1="148" y1="139.5" x2="136" y2="157" stroke="white" stroke-width="2" stroke-linecap="round" opacity="0.80"/>
  <line x1="148" y1="139.5" x2="160" y2="157" stroke="white" stroke-width="2" stroke-linecap="round" opacity="0.80"/>
  <circle cx="136" cy="162" r="5" fill="white" opacity="0.85"/>
  <circle cx="160" cy="162" r="5" fill="white" opacity="0.85"/>
</svg>
